<svg width="25" height="25" viewBox="0 0 25 25" fill="none" xmlns="http://www.w3.org/2000/svg">
<path d="M2.96191 20.7587C2.96191 20.7739 2.96191 21.035 3.06249 21.458C3.10814 21.65 3.36423 21.7064 3.59516 21.7352C3.82608 21.764 4.08067 21.7407 4.29747 21.6523C4.51428 21.564 4.68558 21.4113 4.77094 21.2209C4.85631 21.0305 4.85054 20.8071 4.77083 20.6243C4.69112 20.4415 4.53763 20.3061 4.35182 20.2096C4.16602 20.1131 3.95255 20.0597 3.48259 20.0046" stroke="black" stroke-width="2.5" stroke-linecap="round"/>
<path d="M4.2168 10.9521C5.57638 10.9521 8.99636 11.1381 10.5583 11.8971C12.2008 12.6954 13.125 15.2173 13.7595 17.2097C13.8978 17.8576 13.9649 18.4533 14.0509 19.114C14.1078 19.4297 14.1916 19.7058 14.4375 20.3347" stroke="black" stroke-width="2.5" stroke-linecap="round"/>
<path d="M2.84675 2.25317C2.83051 2.25317 5.68787 2.3603 10.3301 2.59019C13.9856 2.77123 15.8169 4.11405 16.7156 4.78276C17.1378 5.09694 17.6733 6.0479 18.6407 7.83545C20.0219 10.3874 21.1376 13.4873 21.8733 15.892C22.1363 16.7918 22.175 17.0412 22.1953 17.6483C22.2155 18.2554 22.216 19.2128 22.2166 20.1991" stroke="black" stroke-width="2.5" stroke-linecap="round"/>
<path d="M6.13901 19.4381C6.02785 19.2472 5.55824 18.6973 4.9441 18.2231C4.14638 17.6072 3.0467 17.675 2.27797 17.9235C1.55573 18.1569 1.29178 19.1172 1.08302 19.9345C0.793658 21.0673 1.32173 21.8024 1.73061 22.3637C2.15968 22.9528 3.20082 23.0363 5.09242 23.0305C6.16654 23.0271 6.74645 22.0998 7.13789 21.4023C7.37375 20.9821 7.12741 20.4866 6.93809 20.119C6.24261 19.2577 5.79267 18.9062 5.45157 18.7483C5.2705 18.6842 5.07323 18.6526 4.86998 18.62" stroke="black" stroke-width="2" stroke-linecap="round"/>
</svg>
