<svg width="25" height="26" viewBox="0 0 25 26" fill="none" xmlns="http://www.w3.org/2000/svg">
<path d="M12.7531 2.89194C11.402 2.84162 7.434 3.09912 4.98993 4.13047C3.34602 4.82417 2.38857 6.40691 1.70894 8.03415C0.645934 10.5793 1.70701 13.6958 2.11881 14.7209C2.84539 16.5295 5.10461 18.2763 6.10066 18.8514C7.09475 19.4253 10.8076 19.38 13.279 19.1568C16.7313 18.8451 18.6464 16.8117 19.8052 15.7713C20.5718 15.0831 20.822 13.8631 20.9153 11.7971C20.9898 10.1457 19.5857 7.47822 17.3946 3.90296C16.0062 2.23444 15.3078 1.77904 13.6526 1.39824C12.904 1.31489 11.7735 1.24878 10.5841 1.25002" stroke="black" stroke-width="2.5" stroke-linecap="round"/>
<path d="M17.4941 17.5151C17.7985 17.9341 19.5189 19.6945 20.7633 21.1976C21.3287 22.0954 22.0777 22.7722 22.7775 23.3864C22.9151 23.5444 23.0196 23.7326 23.2498 24.2439" stroke="black" stroke-width="2.5" stroke-linecap="round"/>
</svg>
