<svg width="25" height="29" viewBox="0 0 25 29" fill="none" xmlns="http://www.w3.org/2000/svg">
<path d="M1.25 5.26001C1.25872 6.99241 1.33984 10.8463 1.83589 12.5851C2.22851 13.9614 3.06839 16.2976 3.71661 17.9286C4.71807 20.4486 6.04234 22.2391 7.29197 23.8757C8.64237 25.6442 10.0663 26.4665 10.8486 27.0135C11.0048 27.1227 11.1512 27.2205 11.3204 27.2484C11.6722 27.3064 13.5143 25.912 16.1345 23.8513C17.4108 22.8476 18.5991 21.3377 20.2405 19.239C21.3579 17.8103 21.7985 16.8697 22.2191 15.6608C23.0499 13.2732 23.3323 10.7383 23.3043 9.00964C23.2809 7.57311 22.8185 6.10999 22.3169 4.88717C22.1397 4.45514 21.9023 4.49893 21.702 4.55679C20.4385 4.92189 18.6118 5.80415 17.6389 6.07188C16.5393 6.3745 15.7605 5.4312 14.998 4.72517C14.3658 4.13977 13.8867 3.64237 13.4989 3.03279C13.0346 2.30308 12.8434 1.67627 12.7026 1.33868C12.5053 0.865621 12.0132 2.40532 11.0793 3.12227C10.0839 3.88635 9.28125 4.45006 8.11045 5.06871C6.2955 6.02773 5.21505 5.92519 2.93863 5.94691C2.46682 5.90608 2.3125 5.82232 2.16272 5.72838C2.01294 5.63444 1.87236 5.53285 1.64232 5.23146" stroke="black" stroke-width="2.5" stroke-linecap="round"/>
<path d="M5.48242 21.095C5.54367 20.9162 6.23382 20.1598 7.53488 19.4544C8.42011 18.9744 9.6167 18.787 11.2863 18.6121C16.18 18.0994 17.9666 19.0071 18.6213 19.3632C18.8992 19.613 19.1345 19.9107 19.3379 20.2359C19.4386 20.4018 19.5343 20.5693 19.6329 20.7419" stroke="black" stroke-width="2.5" stroke-linecap="round"/>
<path d="M14.1519 17.5582C13.4165 17.5582 11.142 17.2207 10.1744 16.6714C9.25049 16.1469 8.49991 14.3885 8.24132 13.2856C7.91794 11.9064 8.50738 11.1101 9.2174 10.1384C9.85642 9.26382 11.2584 9.11342 12.2465 8.8269C13.1864 8.55433 14.4728 8.88005 15.3241 9.46067C16.5814 10.3183 16.7239 11.654 16.8115 14.5557C16.8375 15.4203 16.4811 15.8695 16.1101 16.3252C14.8707 17.2739 13.4858 17.9477 12.7108 18.1395C12.341 18.2079 12.0189 18.2177 11.687 18.2278" stroke="black" stroke-width="2.5" stroke-linecap="round"/>
</svg>
