<svg width="526" height="380" viewBox="0 0 526 380" fill="none" xmlns="http://www.w3.org/2000/svg">
<circle cx="344" cy="190" r="177" fill="white"/>
<path fill-rule="evenodd" clip-rule="evenodd" d="M280.402 190.754V189.12L280.528 187.486L280.654 185.852L280.779 184.343L280.905 182.709L281.157 181.2L281.659 178.057L282.413 175.04L282.79 173.532L283.293 172.023L283.67 170.515L284.173 169.006L284.802 167.624L285.304 166.241L286.687 163.475L288.07 160.71L289.578 158.07L291.212 155.555L292.972 153.041L293.852 151.784L294.857 150.653L295.737 149.521L296.742 148.39L298.879 146.127L300.01 145.121L301.016 144.116L302.147 143.11L303.404 142.104L305.792 140.219L308.18 138.459L310.82 136.825L313.46 135.316L316.099 133.933L318.864 132.676L320.373 132.048L321.755 131.545L324.646 130.539L326.154 130.036L327.663 129.659L329.171 129.282L330.679 129.031L333.822 128.402L336.964 128.025L340.232 127.773L343.5 127.648L346.642 127.773L348.276 127.899L349.91 128.025L351.419 128.151L353.053 128.402L356.195 129.031L359.212 129.659L360.72 130.036L362.228 130.539L363.611 131.042L365.119 131.545L366.502 132.048L368.01 132.676L370.775 133.933L373.54 135.316L376.18 136.825L378.694 138.459L381.208 140.219L382.339 141.099L383.596 142.104L384.727 143.11L385.858 144.116L387.995 146.127L389.126 147.258L390.132 148.39L391.137 149.521L392.143 150.653L393.903 153.041L395.662 155.555L397.296 158.07L398.93 160.71L400.313 163.475L401.57 166.241L402.073 167.624L402.701 169.006L403.707 172.023L404.084 173.532L404.461 175.04L404.838 176.549L405.215 178.057L405.718 181.2L406.095 184.343L406.346 187.486L406.472 190.754V192.389L406.346 194.023V195.657L406.095 197.165L405.969 198.8L405.718 200.308L405.215 203.451L404.461 206.468L404.084 207.977L403.707 209.485L403.204 210.994L402.701 212.376L402.073 213.885L401.57 215.268L400.313 218.033L398.93 220.799L397.296 223.439L395.662 225.953L393.903 228.467L393.023 229.724L392.143 230.856L391.137 231.987L390.132 233.119L387.995 235.381L386.99 236.387L385.858 237.393L384.727 238.398L383.596 239.404L381.208 241.29L378.694 243.05L376.18 244.684L373.54 246.193L370.775 247.575L368.01 248.832L366.502 249.461L365.119 249.964L362.228 250.969L360.72 251.347L359.212 251.849L357.703 252.227L356.195 252.478L353.053 253.107L349.91 253.484L346.642 253.735H343.5H340.232L338.598 253.609L336.964 253.484L335.456 253.232L333.822 253.107L330.679 252.478L327.663 251.849L326.154 251.347L324.646 250.969L323.264 250.467L321.755 249.964L320.373 249.461L318.864 248.832L316.099 247.575L313.46 246.193L310.82 244.684L308.18 243.05L305.792 241.29L304.535 240.284L303.404 239.404L302.147 238.398L301.016 237.393L298.879 235.381L297.874 234.25L296.742 233.119L295.737 231.987L294.857 230.856L292.972 228.467L291.212 225.953L289.578 223.439L288.07 220.799L286.687 218.033L285.304 215.268L284.802 213.885L284.173 212.376L283.293 209.485L282.79 207.977L282.413 206.468L282.036 204.96L281.659 203.451L281.157 200.308L280.779 197.165L280.528 194.023L280.402 190.754ZM337.844 190.754V190.126L337.969 189.623L338.095 189.12L338.347 188.617L338.598 188.114L338.849 187.611L339.101 187.234L339.478 186.857L340.358 186.103L340.735 185.852L341.238 185.6L341.74 185.474L342.369 185.223H342.872H343.5H344.003H344.631L345.134 185.474L345.637 185.6L346.139 185.852L346.517 186.103L347.019 186.48L347.396 186.857L348.025 187.611L348.402 188.114L348.528 188.617L348.779 189.12L348.905 189.623L349.031 190.126V190.754V191.257L348.905 191.886L348.779 192.389L348.528 192.891L348.402 193.394L348.025 193.897L347.773 194.274L347.396 194.651L346.517 195.406L346.139 195.657L345.637 195.908L345.134 196.034L344.631 196.16L344.003 196.286H343.5H342.872L342.369 196.16L341.74 196.034L341.238 195.908L340.735 195.657L340.358 195.406L339.855 195.028L339.478 194.651L338.849 193.897L338.598 193.394L338.347 192.891L338.095 192.389L337.969 191.886L337.844 191.257V190.754Z" fill="#CC0000"/>
<path d="M403.832 190.314C403.832 223.53 376.9 250.467 343.689 250.467C310.478 250.467 283.545 223.53 283.545 190.314C283.545 157.099 310.478 130.162 343.689 130.162C376.9 130.162 403.832 157.099 403.832 190.314Z" stroke="#E74949" stroke-width="2" stroke-miterlimit="9" stroke-linecap="round" stroke-linejoin="round"/>
<rect width="380" height="380" rx="3" fill="black"/>
</svg>
